<svg preserveAspectRatio="none" width="100%" height="100%" overflow="visible" viewBox="0 0 845.28 476.367" fill="none" xmlns="http://www.w3.org/2000/svg">
  <path
    d="M593.653 132.747C592.806 208.691 513.35 270.563 394.439 289.981C339.129 299.14 280.974 301.538 230.081 321.035C215.949 326.413 204.08 333.975 195.527 343.048C183.424 356.177 183.424 370.564 200.671 382.789C217.131 394.228 236.98 388.724 253.561 383.811C324.726 362.859 395.226 340.454 466.33 319.384C551.475 294.502 639.1 279.132 732.595 298.197C788.45 309.557 824.638 333.575 841.521 370.407C855.621 400.556 829.418 441.162 773.624 455.863C697.194 475.989 625.666 465.455 550.93 447.766C495.983 434.794 437.586 424.377 374.711 428.937C315.225 433.261 264.454 451.028 210.353 463.882C170.535 473.356 130.051 481.493 87.6298 472.412C20.5191 458.025 -30.4343 401.893 21.0637 346.625C72.5616 291.357 150.565 254.958 248.175 244.187C323.697 235.854 402.487 163.408 377.919 114.272C368.649 97.0253 361.645 79.2993 356.98 61.2845C347.722 19.6961 395.589 -7.93779 459.069 2.04657C533.865 13.8391 566.482 51.0643 586.876 94.6967C592.683 107.006 594.98 119.902 593.653 132.747Z"
    fill="black"
    fill-opacity="0.01"
  />
</svg>
