<svg preserveAspectRatio="none" width="100%" height="100%" overflow="visible" style="display: block;" viewBox="0 0 17.5 17.1442" fill="none" xmlns="http://www.w3.org/2000/svg">
<g id="Container">
<path id="Icon" d="M0 17.1442V15.5L1.49996 14V17.1442H0V17.1442M4 17.1442V11.5L5.49996 10V10V17.1442H4V17.1442M8 17.1442V10L9.49996 11.525V17.1442H8V17.1442M12 17.1442V11.525L13.5 10.025V17.1442H12V17.1442M16 17.1442V7.49996L17.5 6V17.1442H16V17.1442M0 11.6134V9.49996L6.74998 2.74998L10.75 6.74998L17.5 0V2.11341L10.75 8.86339L6.74998 4.86339L0 11.6134V11.6134" fill="currentColor"/>
</g>
</svg>
