<svg preserveAspectRatio="none" width="100%" height="100%" overflow="visible" style="display: block;" viewBox="0 0 16.9999 19.1153" fill="none" xmlns="http://www.w3.org/2000/svg">
<g id="Container">
<path id="Icon" d="M7.44996 15.5999L4.24614 12.3961L5.33073 11.3115L7.44996 13.4308L11.6692 9.21154L12.7538 10.2961L7.44996 15.5999V15.5999M1.80768 19.1153C1.30255 19.1153 0.874992 18.9403 0.524995 18.5903C0.174998 18.2403 0 17.8128 0 17.3076V3.92307C0 3.41795 0.174998 2.99039 0.524995 2.64039C0.874992 2.29039 1.30255 2.11539 1.80768 2.11539H3.19232V0H4.73075V2.11539H12.3076V0H13.8076V2.11539H15.1922C15.6974 2.11539 16.1249 2.29039 16.4749 2.64039C16.8249 2.99039 16.9999 3.41795 16.9999 3.92307V17.3076C16.9999 17.8128 16.8249 18.2403 16.4749 18.5903C16.1249 18.9403 15.6974 19.1153 15.1922 19.1153H1.80768V19.1153M1.80768 17.6154H15.1922C15.2692 17.6154 15.3397 17.5833 15.4038 17.5192C15.4679 17.4551 15.5 17.3846 15.5 17.3076V7.92307H1.49996V17.3076C1.49996 17.3846 1.53202 17.4551 1.59612 17.5192C1.66023 17.5833 1.73075 17.6154 1.80768 17.6154V17.6154M1.49996 6.42311H15.5V3.92307C15.5 3.84614 15.4679 3.77562 15.4038 3.71152C15.3397 3.64741 15.2692 3.61536 15.1922 3.61536H1.80768C1.73075 3.61536 1.66023 3.64741 1.59612 3.71152C1.53202 3.77562 1.49996 3.84614 1.49996 3.92307V6.42311V6.42311M1.49996 6.42311V3.92307C1.49996 3.84614 1.49996 3.77562 1.49996 3.71152C1.49996 3.64741 1.49996 3.61536 1.49996 3.61536V3.61536C1.49996 3.61536 1.49996 3.64741 1.49996 3.71152C1.49996 3.77562 1.49996 3.84614 1.49996 3.92307V6.42311V6.42311V6.42311" fill="currentColor"/>
</g>
</svg>
