<svg preserveAspectRatio="none" width="100%" height="100%" overflow="visible" style="display: block;" viewBox="0 0 22.9999 18.0192" fill="none" xmlns="http://www.w3.org/2000/svg">
<g id="Container">
<path id="Icon" d="M1.04616 9.86728C0.707697 9.25445 0.44872 8.6317 0.269232 7.999C0.0897441 7.36631 0 6.7333 0 6.09996C0 4.38715 0.588458 2.94229 1.76537 1.76537C2.94229 0.588458 4.38715 0 6.09996 0C7.13073 0 8.11631 0.241668 9.05669 0.725005C9.99708 1.20834 10.8115 1.89296 11.5 2.77887C12.1884 1.89296 13.0029 1.20834 13.9432 0.725005C14.8836 0.241668 15.8692 0 16.9 0C18.6128 0 20.0576 0.588458 21.2346 1.76537C22.4115 2.94229 22.9999 4.38715 22.9999 6.09996C22.9999 6.72048 22.9102 7.34387 22.7307 7.97016C22.5512 8.59644 22.2922 9.22561 21.9538 9.85766C21.81 9.63048 21.6401 9.42722 21.444 9.24787C21.248 9.06851 21.0281 8.92307 20.7846 8.81154C21.0179 8.33845 21.1955 7.87851 21.3173 7.43171C21.4391 6.98491 21.5 6.54099 21.5 6.09996C21.5 4.80637 21.0567 3.71631 20.1702 2.82977C19.2836 1.94323 18.1936 1.49996 16.9 1.49996C15.7102 1.49996 14.724 1.84035 13.9413 2.52111C13.1586 3.20188 12.3448 4.06149 11.5 5.09996C10.6551 4.05124 9.8413 3.18906 9.05861 2.51342C8.27591 1.83778 7.2897 1.49996 6.09996 1.49996C4.80637 1.49996 3.71631 1.94323 2.82977 2.82977C1.94323 3.71631 1.49996 4.80637 1.49996 6.09996C1.49996 6.55381 1.56086 7.00574 1.68266 7.45575C1.80446 7.90576 1.97882 8.36089 2.20575 8.82115C1.96217 8.9391 1.74422 9.08621 1.55192 9.26249C1.35962 9.43876 1.19103 9.64036 1.04616 9.86728V9.86728M0 18.0192V16.8C0 16.1243 0.348572 15.5753 1.04572 15.1528C1.74286 14.7304 2.64758 14.5192 3.75988 14.5192C3.96354 14.5192 4.15895 14.525 4.34613 14.5365C4.53331 14.548 4.71216 14.5705 4.88267 14.6038C4.69421 14.8987 4.55126 15.2125 4.45383 15.5452C4.3564 15.878 4.30768 16.2324 4.30768 16.6086V18.0192H0V18.0192M6 18.0192V16.6442C6 15.6891 6.50823 14.923 7.52468 14.3461C8.54114 13.7692 9.86712 13.4807 11.5026 13.4807C13.1534 13.4807 14.4823 13.7692 15.4894 14.3461C16.4964 14.923 16.9999 15.6891 16.9999 16.6442V18.0192H6V18.0192M18.6922 18.0192V16.6086C18.6922 16.2324 18.6477 15.878 18.5586 15.5452C18.4695 15.2125 18.3358 14.8987 18.1576 14.6038C18.3282 14.5705 18.505 14.548 18.6883 14.5365C18.8715 14.525 19.0587 14.5192 19.2499 14.5192C20.3749 14.5192 21.2812 14.7304 21.9687 15.1528C22.6562 15.5753 22.9999 16.1243 22.9999 16.8V18.0192H18.6922V18.0192M11.4988 14.9807C10.4598 14.9807 9.56694 15.1185 8.82015 15.3942C8.07335 15.6698 7.65893 16.0096 7.57688 16.4134V16.5192H15.4384V16.4134C15.3461 16.0096 14.9307 15.6698 14.1923 15.3942C13.4538 15.1185 12.556 14.9807 11.4988 14.9807V14.9807M3.7596 13.548C3.28893 13.548 2.88601 13.3805 2.55084 13.0453C2.21567 12.7101 2.04808 12.3072 2.04808 11.8365C2.04808 11.3596 2.21567 10.9567 2.55084 10.6279C2.88601 10.299 3.28893 10.1346 3.7596 10.1346C4.23651 10.1346 4.641 10.299 4.97304 10.6279C5.30509 10.9567 5.47112 11.3596 5.47112 11.8365C5.47112 12.3072 5.30509 12.7101 4.97304 13.0453C4.641 13.3805 4.23651 13.548 3.7596 13.548V13.548M19.2499 13.548C18.7833 13.548 18.3814 13.3805 18.0442 13.0453C17.707 12.7101 17.5384 12.3072 17.5384 11.8365C17.5384 11.3596 17.707 10.9567 18.0442 10.6279C18.3814 10.299 18.7839 10.1346 19.2518 10.1346C19.7339 10.1346 20.1394 10.299 20.4682 10.6279C20.797 10.9567 20.9615 11.3596 20.9615 11.8365C20.9615 12.3072 20.7974 12.7101 20.4694 13.0453C20.1414 13.3805 19.7349 13.548 19.2499 13.548V13.548M11.5034 12.7307C10.7832 12.7307 10.1699 12.4783 9.66345 11.9735C9.15704 11.4687 8.90384 10.8558 8.90384 10.1346C8.90384 9.39906 9.15624 8.78248 9.66104 8.28489C10.1658 7.7873 10.7788 7.5385 11.5 7.5385C12.2355 7.5385 12.8521 7.78697 13.3497 8.28391C13.8473 8.78085 14.0961 9.39662 14.0961 10.1312C14.0961 10.8514 13.8476 11.4647 13.3507 11.9711C12.8537 12.4775 12.238 12.7307 11.5034 12.7307V12.7307M11.5 9.03846C11.1974 9.03846 10.9391 9.14351 10.725 9.35361C10.5109 9.56371 10.4038 9.82405 10.4038 10.1346C10.4038 10.4372 10.5109 10.6955 10.725 10.9096C10.9391 11.1237 11.199 11.2308 11.5048 11.2308C11.8105 11.2308 12.0689 11.1237 12.2798 10.9096C12.4907 10.6955 12.5961 10.4356 12.5961 10.1298C12.5961 9.82405 12.4911 9.56571 12.281 9.35481C12.0709 9.14391 11.8105 9.03846 11.5 9.03846V9.03846M11.5 10.1346V10.1346V10.1346V10.1346V10.1346V10.1346V10.1346V10.1346V10.1346V10.1346M11.5153 16.5192V16.5192V16.5192V16.5192V16.5192V16.5192V16.5192V16.5192V16.5192" fill="currentColor"/>
</g>
</svg>
