<svg preserveAspectRatio="none" width="100%" height="100%" overflow="visible" style="display: block;" viewBox="0 0 18.9999 19.9807" fill="none" xmlns="http://www.w3.org/2000/svg">
<g id="Container">
<path id="Icon" d="M1.61536 19.9807V9.09609H0V3.88461H5.17115C5.03012 3.72179 4.93429 3.53843 4.88364 3.33454C4.833 3.13065 4.80768 2.91656 4.80768 2.69229C4.80768 1.94443 5.06943 1.30875 5.59293 0.785251C6.11643 0.26175 6.75211 0 7.49996 0C7.8833 0 8.23843 0.0804494 8.56535 0.241348C8.89227 0.402247 9.18458 0.617313 9.44227 0.886545C9.69996 0.607057 9.99226 0.389427 10.3192 0.233656C10.6461 0.0778854 11.0012 0 11.3846 0C12.1324 0 12.7681 0.26175 13.2916 0.785251C13.8151 1.30875 14.0769 1.94443 14.0769 2.69229C14.0769 2.91408 14.049 3.12498 13.9932 3.32499C13.9374 3.52499 13.8442 3.71153 13.7134 3.88461H18.9999V9.09609H17.3846V19.9807H1.61536V19.9807M11.3846 1.49996C11.05 1.49996 10.7676 1.6139 10.5374 1.84179C10.3073 2.06967 10.1922 2.35204 10.1922 2.68891C10.1922 3.02578 10.3068 3.30928 10.536 3.53941C10.7652 3.76954 11.0492 3.88461 11.3879 3.88461C11.7267 3.88461 12.0096 3.77002 12.2365 3.54084C12.4634 3.31167 12.5769 3.02769 12.5769 2.68891C12.5769 2.35013 12.4618 2.06728 12.2317 1.84035C12.0016 1.61343 11.7192 1.49996 11.3846 1.49996V1.49996M6.30764 2.68891C6.30764 3.02578 6.42271 3.30928 6.65284 3.53941C6.88297 3.76954 7.16534 3.88461 7.49996 3.88461C7.83458 3.88461 8.11696 3.77002 8.34709 3.54084C8.57722 3.31167 8.69229 3.02769 8.69229 2.68891C8.69229 2.35013 8.57834 2.06728 8.35046 1.84035C8.12258 1.61343 7.84021 1.49996 7.50334 1.49996C7.16647 1.49996 6.88297 1.6139 6.65284 1.84179C6.42271 2.06967 6.30764 2.35204 6.30764 2.68891V2.68891M1.49996 5.38457V7.59612H8.74998V5.38457H1.49996V5.38457M8.74998 18.4807V9.09609H3.11532V18.4807H8.74998V18.4807M10.2499 18.4807H15.8846V9.09609H10.2499V18.4807V18.4807M17.5 7.59612V5.38457H10.2499V7.59612H17.5V7.59612" fill="currentColor"/>
</g>
</svg>
