<svg preserveAspectRatio="none" width="100%" height="100%" overflow="visible" style="display: block;" viewBox="0 0 16.9999 19.1153" fill="none" xmlns="http://www.w3.org/2000/svg">
<g id="Container">
<path id="Icon" d="M1.80768 19.1153C1.30255 19.1153 0.874992 18.9403 0.524995 18.5903C0.174998 18.2403 0 17.8128 0 17.3076V3.92307C0 3.41795 0.174998 2.99039 0.524995 2.64039C0.874992 2.29039 1.30255 2.11539 1.80768 2.11539H3.19232V0H4.73075V2.11539H12.3076V0H13.8076V2.11539H15.1922C15.6974 2.11539 16.1249 2.29039 16.4749 2.64039C16.8249 2.99039 16.9999 3.41795 16.9999 3.92307V17.3076C16.9999 17.8128 16.8249 18.2403 16.4749 18.5903C16.1249 18.9403 15.6974 19.1153 15.1922 19.1153H1.80768V19.1153M1.80768 17.6154H15.1922C15.2692 17.6154 15.3397 17.5833 15.4038 17.5192C15.4679 17.4551 15.5 17.3846 15.5 17.3076V7.92307H1.49996V17.3076C1.49996 17.3846 1.53202 17.4551 1.59612 17.5192C1.66023 17.5833 1.73075 17.6154 1.80768 17.6154V17.6154M1.49996 6.42311H15.5V3.92307C15.5 3.84614 15.4679 3.77562 15.4038 3.71152C15.3397 3.64741 15.2692 3.61536 15.1922 3.61536H1.80768C1.73075 3.61536 1.66023 3.64741 1.59612 3.71152C1.53202 3.77562 1.49996 3.84614 1.49996 3.92307V6.42311V6.42311M1.49996 6.42311V3.92307C1.49996 3.84614 1.49996 3.77562 1.49996 3.71152C1.49996 3.64741 1.49996 3.61536 1.49996 3.61536V3.61536C1.49996 3.61536 1.49996 3.64741 1.49996 3.71152C1.49996 3.77562 1.49996 3.84614 1.49996 3.92307V6.42311V6.42311V6.42311M8.49996 11.6923C8.25509 11.6923 8.04644 11.6061 7.87401 11.4336C7.70157 11.2612 7.61536 11.0525 7.61536 10.8077C7.61536 10.5628 7.70157 10.3542 7.87401 10.1817C8.04644 10.0093 8.25509 9.92307 8.49996 9.92307C8.74483 9.92307 8.95348 10.0093 9.12592 10.1817C9.29835 10.3542 9.38457 10.5628 9.38457 10.8077C9.38457 11.0525 9.29835 11.2612 9.12592 11.4336C8.95348 11.6061 8.74483 11.6923 8.49996 11.6923V11.6923M4.49996 11.6923C4.25509 11.6923 4.04644 11.6061 3.87401 11.4336C3.70157 11.2612 3.61536 11.0525 3.61536 10.8077C3.61536 10.5628 3.70157 10.3542 3.87401 10.1817C4.04644 10.0093 4.25509 9.92307 4.49996 9.92307C4.74483 9.92307 4.95348 10.0093 5.12592 10.1817C5.29835 10.3542 5.38457 10.5628 5.38457 10.8077C5.38457 11.0525 5.29835 11.2612 5.12592 11.4336C4.95348 11.6061 4.74483 11.6923 4.49996 11.6923V11.6923M12.5 11.6923C12.2551 11.6923 12.0464 11.6061 11.874 11.4336C11.7016 11.2612 11.6154 11.0525 11.6154 10.8077C11.6154 10.5628 11.7016 10.3542 11.874 10.1817C12.0464 10.0093 12.2551 9.92307 12.5 9.92307C12.7448 9.92307 12.9535 10.0093 13.1259 10.1817C13.2984 10.3542 13.3846 10.5628 13.3846 10.8077C13.3846 11.0525 13.2984 11.2612 13.1259 11.4336C12.9535 11.6061 12.7448 11.6923 12.5 11.6923V11.6923M8.49996 15.6154C8.25509 15.6154 8.04644 15.5291 7.87401 15.3567C7.70157 15.1843 7.61536 14.9756 7.61536 14.7307C7.61536 14.4859 7.70157 14.2772 7.87401 14.1048C8.04644 13.9324 8.25509 13.8461 8.49996 13.8461C8.74483 13.8461 8.95348 13.9324 9.12592 14.1048C9.29835 14.2772 9.38457 14.4859 9.38457 14.7307C9.38457 14.9756 9.29835 15.1843 9.12592 15.3567C8.95348 15.5291 8.74483 15.6154 8.49996 15.6154V15.6154M4.49996 15.6154C4.25509 15.6154 4.04644 15.5291 3.87401 15.3567C3.70157 15.1843 3.61536 14.9756 3.61536 14.7307C3.61536 14.4859 3.70157 14.2772 3.87401 14.1048C4.04644 13.9324 4.25509 13.8461 4.49996 13.8461C4.74483 13.8461 4.95348 13.9324 5.12592 14.1048C5.29835 14.2772 5.38457 14.4859 5.38457 14.7307C5.38457 14.9756 5.29835 15.1843 5.12592 15.3567C4.95348 15.5291 4.74483 15.6154 4.49996 15.6154V15.6154M12.5 15.6154C12.2551 15.6154 12.0464 15.5291 11.874 15.3567C11.7016 15.1843 11.6154 14.9756 11.6154 14.7307C11.6154 14.4859 11.7016 14.2772 11.874 14.1048C12.0464 13.9324 12.2551 13.8461 12.5 13.8461C12.7448 13.8461 12.9535 13.9324 13.1259 14.1048C13.2984 14.2772 13.3846 14.4859 13.3846 14.7307C13.3846 14.9756 13.2984 15.1843 13.1259 15.3567C12.9535 15.5291 12.7448 15.6154 12.5 15.6154V15.6154" fill="currentColor"/>
</g>
</svg>
