<svg preserveAspectRatio="none" width="100%" height="100%" overflow="visible" style="display: block;" viewBox="0 0 14.9999 18.9999" fill="none" xmlns="http://www.w3.org/2000/svg">
<g id="Container">
<path id="Icon" d="M3.4038 17.5H11.5961V14.5C11.5961 13.3615 11.198 12.3878 10.4019 11.5788C9.60574 10.7698 8.63843 10.3653 7.49996 10.3653C6.3615 10.3653 5.39419 10.7698 4.59803 11.5788C3.80188 12.3878 3.4038 13.3615 3.4038 14.5V17.5V17.5M0 18.9999V17.5H1.90384V14.5C1.90384 13.3743 2.21186 12.3496 2.82789 11.4259C3.44393 10.5022 4.26029 9.86021 5.27697 9.49996C4.26029 9.13331 3.44393 8.48972 2.82789 7.56921C2.21186 6.64869 1.90384 5.62561 1.90384 4.49996V1.49996H0V0H14.9999V1.49996H13.0961V4.49996C13.0961 5.62561 12.7881 6.64869 12.172 7.56921C11.556 8.48972 10.7396 9.13331 9.72296 9.49996C10.7396 9.86021 11.556 10.5022 12.172 11.4259C12.7881 12.3496 13.0961 13.3743 13.0961 14.5V17.5H14.9999V18.9999H0V18.9999" fill="currentColor"/>
</g>
</svg>
